<svg width="3153" height="1760" viewBox="0 0 3153 1760" fill="none" xmlns="http://www.w3.org/2000/svg">
<path d="M1896.6 1498.1L2197.37 1324.47Z" fill="#1357BC"/>
<path d="M1896.6 1498.1L2197.37 1324.47" stroke="#1357BC" stroke-width="13.1343" stroke-linecap="round"/>
<path d="M1294.78 1498.1L1595.56 1324.47Z" fill="#1357BC"/>
<path d="M1294.78 1498.1L1595.56 1324.47" stroke="#1357BC" stroke-width="13.1343" stroke-linecap="round"/>
<path d="M509.087 1060.2L429.23 814.328Z" fill="#1357BC"/>
<path d="M509.087 1060.2L429.23 814.328" stroke="#1357BC" stroke-width="13.1343" stroke-linecap="round"/>
<path d="M682.984 525.373L866.865 659.08Z" fill="#1357BC"/>
<path d="M682.984 525.373L866.865 659.08" stroke="#1357BC" stroke-width="13.1343" stroke-linecap="round"/>
<path d="M936.738 814.328L856.881 1060.2Z" fill="#1357BC"/>
<path d="M936.738 814.328L856.881 1060.2" stroke="#1357BC" stroke-width="13.1343" stroke-linecap="round"/>
<path d="M856.881 1060.2L964.32 1390.92Z" fill="#1357BC"/>
<path d="M856.881 1060.2L964.32 1390.92" stroke="#1357BC" stroke-width="13.1343" stroke-linecap="round"/>
<path d="M856.885 1060.2H509.088Z" fill="#1357BC"/>
<path d="M856.885 1060.2H509.088" stroke="#1357BC" stroke-width="13.1343" stroke-linecap="round"/>
<path d="M2197.37 1324.47L2403.58 1443.46Z" fill="#1357BC"/>
<path d="M2197.37 1324.47L2403.58 1443.46" stroke="#1357BC" stroke-width="13.1343" stroke-linecap="round"/>
<path d="M499.105 659.08L682.986 525.373Z" fill="#1357BC"/>
<path d="M499.105 659.08L682.986 525.373" stroke="#1357BC" stroke-width="13.1343" stroke-linecap="round"/>
<path d="M401.648 1390.92L509.087 1060.2Z" fill="#1357BC"/>
<path d="M401.648 1390.92L509.087 1060.2" stroke="#1357BC" stroke-width="13.1343" stroke-linecap="round"/>
<path d="M1021.59 1374.9L1001.36 1437.42Z" fill="#1357BC"/>
<path d="M1021.59 1374.9L1001.36 1437.42" stroke="#1357BC" stroke-width="13.1343" stroke-linecap="round"/>
<path d="M1068.87 1390.4L1048.64 1452.66Z" fill="#1357BC"/>
<path d="M1068.87 1390.4L1048.64 1452.66" stroke="#1357BC" stroke-width="13.1343" stroke-linecap="round"/>
<path d="M1116.15 1405.63L1095.93 1468.15Z" fill="#1357BC"/>
<path d="M1116.15 1405.63L1095.93 1468.15" stroke="#1357BC" stroke-width="13.1343" stroke-linecap="round"/>
<path d="M1163.44 1420.87L1142.95 1483.39Z" fill="#1357BC"/>
<path d="M1163.44 1420.87L1142.95 1483.39" stroke="#1357BC" stroke-width="13.1343" stroke-linecap="round"/>
<path d="M1210.46 1436.37L1190.23 1498.63Z" fill="#1357BC"/>
<path d="M1210.46 1436.37L1190.23 1498.63" stroke="#1357BC" stroke-width="13.1343" stroke-linecap="round"/>
<path d="M1257.74 1451.61L1237.52 1514.12Z" fill="#1357BC"/>
<path d="M1257.74 1451.61L1237.52 1514.12" stroke="#1357BC" stroke-width="13.1343" stroke-linecap="round"/>
<path d="M656.717 538.507V262.687Z" fill="#1357BC"/>
<path d="M656.717 538.507V262.687" stroke="#1357BC" stroke-width="13.1343" stroke-linecap="round"/>
<path d="M709.254 538.507V262.687Z" fill="#1357BC"/>
<path d="M709.254 538.507V262.687" stroke="#1357BC" stroke-width="13.1343" stroke-linecap="round"/>
<path d="M509.087 1066.77L249.553 1093.04V1027.37L509.087 1053.63V1066.77Z" fill="#1357BC" stroke="#1357BC" stroke-width="13.1343" stroke-linecap="round"/>
<path d="M856.881 1053.63L1116.42 1027.37V1093.04L856.881 1066.77V1053.63Z" fill="#1357BC" stroke="#1357BC" stroke-width="13.1343" stroke-linecap="round"/>
<path d="M1595.56 1324.47L1896.6 1498.1Z" fill="#1357BC"/>
<path d="M1595.56 1324.47L1896.6 1498.1" stroke="#1357BC" stroke-width="13.1343" stroke-linecap="round"/>
<path d="M964.322 1390.93L761.791 1538.03Z" fill="#1357BC"/>
<path d="M964.322 1390.93L761.791 1538.03" stroke="#1357BC" stroke-width="13.1343" stroke-linecap="round"/>
<path d="M591.045 1528.57L401.648 1390.93Z" fill="#1357BC"/>
<path d="M591.045 1528.57L401.648 1390.93" stroke="#1357BC" stroke-width="13.1343" stroke-linecap="round"/>
<path d="M2536.48 1501.19L2555.14 1505.91C2551.23 1521.23 2544.19 1532.92 2534.02 1540.97C2523.86 1549.02 2511.43 1553.04 2496.75 1553.04C2481.55 1553.04 2469.19 1549.95 2459.66 1543.76C2450.14 1537.57 2442.89 1528.61 2437.92 1516.87C2432.95 1505.14 2430.47 1492.53 2430.47 1479.07C2430.47 1464.38 2433.27 1451.57 2438.88 1440.63C2444.5 1429.7 2452.48 1421.4 2462.84 1415.72C2473.19 1410.04 2484.59 1407.21 2497.04 1407.21C2511.15 1407.21 2523.01 1410.8 2532.63 1417.98C2542.25 1425.16 2548.95 1435.26 2552.74 1448.28L2534.36 1452.61C2531.09 1442.35 2526.34 1434.88 2520.12 1430.2C2513.9 1425.52 2506.08 1423.17 2496.65 1423.17C2485.81 1423.17 2476.75 1425.77 2469.48 1430.97C2462.2 1436.16 2457.08 1443.14 2454.13 1451.89C2451.18 1460.64 2449.71 1469.67 2449.71 1478.97C2449.71 1490.96 2451.45 1501.43 2454.95 1510.38C2458.44 1519.33 2463.88 1526.01 2471.26 1530.44C2478.63 1534.86 2486.61 1537.07 2495.21 1537.07C2505.66 1537.07 2514.51 1534.06 2521.76 1528.03C2529.01 1522 2533.91 1513.06 2536.48 1501.19ZM2572.55 1481.95C2572.55 1458.54 2578.84 1440.22 2591.41 1426.97C2603.98 1413.73 2620.2 1407.11 2640.08 1407.11C2653.1 1407.11 2664.84 1410.22 2675.29 1416.44C2685.75 1422.66 2693.71 1431.34 2699.2 1442.46C2704.68 1453.59 2707.42 1466.21 2707.42 1480.32C2707.42 1494.62 2704.54 1507.41 2698.76 1518.7C2692.99 1529.99 2684.82 1538.53 2674.23 1544.34C2663.65 1550.14 2652.24 1553.04 2639.99 1553.04C2626.71 1553.04 2614.85 1549.84 2604.39 1543.42C2593.94 1537.01 2586.02 1528.26 2580.63 1517.16C2575.25 1506.07 2572.55 1494.33 2572.55 1481.95ZM2591.79 1482.24C2591.79 1499.24 2596.36 1512.62 2605.5 1522.4C2614.64 1532.18 2626.1 1537.07 2639.89 1537.07C2653.94 1537.07 2665.5 1532.14 2674.57 1522.26C2683.65 1512.38 2688.18 1498.37 2688.18 1480.22C2688.18 1468.74 2686.24 1458.72 2682.36 1450.16C2678.48 1441.6 2672.81 1434.96 2665.34 1430.25C2657.86 1425.53 2649.48 1423.17 2640.18 1423.17C2626.97 1423.17 2615.6 1427.71 2606.08 1436.79C2596.55 1445.86 2591.79 1461.01 2591.79 1482.24ZM2725.7 1481.95C2725.7 1458.54 2731.99 1440.22 2744.56 1426.97C2757.13 1413.73 2773.35 1407.11 2793.23 1407.11C2806.25 1407.11 2817.99 1410.22 2828.44 1416.44C2838.89 1422.66 2846.86 1431.34 2852.35 1442.46C2857.83 1453.59 2860.57 1466.21 2860.57 1480.32C2860.57 1494.62 2857.69 1507.41 2851.91 1518.7C2846.14 1529.99 2837.96 1538.53 2827.38 1544.34C2816.8 1550.14 2805.38 1553.04 2793.14 1553.04C2779.86 1553.04 2768 1549.84 2757.54 1543.42C2747.09 1537.01 2739.17 1528.26 2733.78 1517.16C2728.39 1506.07 2725.7 1494.33 2725.7 1481.95ZM2744.94 1482.24C2744.94 1499.24 2749.51 1512.62 2758.65 1522.4C2767.79 1532.18 2779.25 1537.07 2793.04 1537.07C2807.08 1537.07 2818.64 1532.14 2827.72 1522.26C2836.79 1512.38 2841.33 1498.37 2841.33 1480.22C2841.33 1468.74 2839.39 1458.72 2835.51 1450.16C2831.63 1441.6 2825.96 1434.96 2818.48 1430.25C2811.01 1425.53 2802.63 1423.17 2793.33 1423.17C2780.12 1423.17 2768.75 1427.71 2759.23 1436.79C2749.7 1445.86 2744.94 1461.01 2744.94 1482.24ZM2885.1 1550.64V1409.61H2903.76V1467.52H2977.07V1409.61H2995.73V1550.64H2977.07V1484.16H2903.76V1550.64H2885.1Z" fill="#1357BC"/>
<path d="M190.463 782.28V641.253H209.125V699.165H282.429V641.253H301.091V782.28H282.429V715.807H209.125V782.28H190.463ZM332.067 782.28V641.253H351.211L425.284 751.978V641.253H443.177V782.28H424.033L349.96 671.459V782.28H332.067Z" fill="#1357BC"/>
<path d="M898.947 782.28V641.253H918.091L992.164 751.978V641.253H1010.06V782.28H990.913L916.84 671.459V782.28H898.947ZM1042.09 782.28V641.253H1060.75V699.165H1134.06V641.253H1152.72V782.28H1134.06V715.807H1060.75V782.28H1042.09Z" fill="#1357BC"/>
<path d="M617.643 161.691C617.643 138.283 623.928 119.957 636.498 106.714C649.067 93.4704 665.293 86.8488 685.174 86.8486C698.193 86.8488 709.929 89.9592 720.383 96.1799C730.836 102.401 738.805 111.075 744.288 122.202C749.771 133.329 752.513 145.947 752.513 160.056C752.513 174.357 749.627 187.152 743.855 198.439C738.083 209.726 729.906 218.272 719.325 224.076C708.743 229.88 697.327 232.782 685.078 232.782C671.802 232.782 659.938 229.575 649.484 223.162C639.031 216.749 631.11 207.995 625.723 196.9C620.336 185.805 617.643 174.069 617.643 161.691ZM636.882 161.98C636.882 178.975 641.452 192.363 650.591 202.143C659.729 211.923 671.193 216.813 684.982 216.813C699.027 216.813 710.586 211.875 719.661 201.998C728.736 192.122 733.273 178.109 733.273 159.96C733.273 148.48 731.333 138.459 727.453 129.898C723.573 121.336 717.898 114.698 710.426 109.984C702.955 105.271 694.569 102.914 685.27 102.914C672.059 102.914 660.691 107.451 651.168 116.526C641.644 125.601 636.882 140.752 636.882 161.98Z" fill="#1357BC"/>
<path d="M616.969 1602.52L634.573 1600.98C635.407 1608.04 637.347 1613.83 640.393 1618.35C643.439 1622.87 648.169 1626.53 654.582 1629.32C660.996 1632.11 668.211 1633.5 676.227 1633.5C683.346 1633.5 689.631 1632.44 695.082 1630.33C700.533 1628.21 704.59 1625.31 707.251 1621.62C709.913 1617.93 711.243 1613.91 711.243 1609.55C711.243 1605.12 709.961 1601.26 707.396 1597.95C704.83 1594.65 700.597 1591.88 694.697 1589.63C690.913 1588.16 682.544 1585.87 669.589 1582.76C656.635 1579.64 647.56 1576.71 642.365 1573.95C635.631 1570.43 630.613 1566.05 627.31 1560.82C624.007 1555.6 622.356 1549.74 622.356 1543.27C622.356 1536.15 624.376 1529.49 628.416 1523.3C632.457 1517.12 638.357 1512.42 646.117 1509.21C653.877 1506 662.503 1504.4 671.994 1504.4C682.448 1504.4 691.667 1506.08 699.652 1509.45C707.636 1512.82 713.777 1517.77 718.074 1524.31C722.37 1530.86 724.679 1538.26 725 1546.54L707.107 1547.88C706.145 1538.97 702.89 1532.23 697.343 1527.68C691.795 1523.13 683.602 1520.85 672.764 1520.85C661.477 1520.85 653.252 1522.92 648.089 1527.06C642.926 1531.19 640.345 1536.18 640.345 1542.02C640.345 1547.08 642.173 1551.25 645.828 1554.52C649.42 1557.79 658.799 1561.14 673.966 1564.57C689.134 1568 699.539 1571 705.183 1573.57C713.392 1577.35 719.452 1582.15 723.365 1587.95C727.276 1593.75 729.232 1600.44 729.233 1608.01C729.232 1615.51 727.084 1622.58 722.787 1629.22C718.49 1635.86 712.318 1641.02 704.269 1644.71C696.22 1648.39 687.162 1650.24 677.093 1650.24C664.331 1650.24 653.636 1648.38 645.011 1644.66C636.385 1640.94 629.619 1635.34 624.713 1627.87C619.807 1620.4 617.225 1611.95 616.969 1602.52Z" fill="#1357BC"/>
<path d="M1149.27 1112.74V971.712H1167.93V1029.62H1241.24V971.712H1259.9V1112.74H1241.24V1046.27H1167.93V1112.74H1149.27Z" fill="#1357BC"/>
<path d="M98.5234 1112.74V971.712H117.186V1029.62H190.489V971.712H209.152V1112.74H190.489V1046.27H117.186V1112.74H98.5234Z" fill="#1357BC"/>
</svg>
