<svg width="2208" height="1143" viewBox="0 0 2208 1143" fill="none" xmlns="http://www.w3.org/2000/svg">
<path d="M1055.2 915.913L1484.9 667.848Z" fill="#1357BC"/>
<path d="M1055.2 915.913L1484.9 667.848" stroke="#1357BC" stroke-width="18.7644" stroke-linecap="round"/>
<path d="M539.217 9.99932L500.953 399.492Z" fill="#1357BC"/>
<path d="M539.217 9.99932L500.953 399.492" stroke="#1357BC" stroke-width="18.7644" stroke-linecap="round"/>
<path d="M1484.9 667.848L1779.5 837.853Z" fill="#1357BC"/>
<path d="M1484.9 667.848L1779.5 837.853" stroke="#1357BC" stroke-width="18.7644" stroke-linecap="round"/>
<path d="M384.272 1133.18L470.507 737.185Z" fill="#1357BC"/>
<path d="M384.272 1133.18L470.507 737.185" stroke="#1357BC" stroke-width="18.7644" stroke-linecap="round"/>
<path d="M625.119 667.848L1055.2 915.913Z" fill="#1357BC"/>
<path d="M625.119 667.848L1055.2 915.913" stroke="#1357BC" stroke-width="18.7644" stroke-linecap="round"/>
<path d="M330.695 633.204L10 791.459Z" fill="#1357BC"/>
<path d="M330.695 633.204L10 791.459" stroke="#1357BC" stroke-width="18.7644" stroke-linecap="round"/>
<path d="M1822.2 905.541C1822.2 872.099 1831.18 845.918 1849.14 826.997C1867.1 808.077 1890.28 798.617 1918.68 798.617C1937.28 798.617 1954.05 803.061 1968.98 811.948C1983.92 820.836 1995.3 833.228 2003.14 849.124C2010.97 865.021 2014.89 883.048 2014.89 903.205C2014.89 923.637 2010.76 941.916 2002.52 958.041C1994.27 974.167 1982.59 986.376 1967.47 994.668C1952.35 1002.96 1936.04 1007.11 1918.54 1007.11C1899.58 1007.11 1882.63 1002.52 1867.69 993.362C1852.76 984.2 1841.44 971.693 1833.75 955.842C1826.05 939.992 1822.2 923.225 1822.2 905.541ZM1849.69 905.954C1849.69 930.234 1856.22 949.36 1869.27 963.333C1882.33 977.305 1898.71 984.291 1918.41 984.291C1938.47 984.291 1954.99 977.236 1967.95 963.126C1980.92 949.017 1987.4 928.997 1987.4 903.068C1987.4 886.667 1984.63 872.351 1979.08 860.119C1973.54 847.888 1965.43 838.405 1954.76 831.67C1944.08 824.936 1932.1 821.569 1918.82 821.569C1899.95 821.569 1883.71 828.051 1870.1 841.016C1856.49 853.981 1849.69 875.627 1849.69 905.954ZM2049.93 1003.67V802.19H2076.59V884.926H2181.32V802.19H2207.98V1003.67H2181.32V908.702H2076.59V1003.67H2049.93Z" fill="#1357BC"/>
<path d="M407.724 652.932V451.453H435.073L540.898 609.64V451.453H566.461V652.932H539.111L433.286 494.608V652.932H407.724Z" fill="#1357BC"/>
<path d="M671.338 510.786V425.066H656.792V510.786H671.338ZM706.925 475.199V460.653H621.205V475.199H706.925Z" fill="#1357BC"/>
</svg>
