<svg width="4904" height="1706" viewBox="0 0 4904 1706" fill="none" xmlns="http://www.w3.org/2000/svg">
<path d="M1484.86 1465.01V1623.78H1466.25L1379.73 1499.12H1378.18V1623.78H1358.96V1465.01H1377.56L1464.39 1589.98H1465.94V1465.01H1484.86Z" fill="#1357BC"/>
<path d="M1484.86 836.281V995.053H1466.25L1379.73 870.392H1378.18V995.053H1358.96V836.281H1377.56L1464.39 961.252H1465.94V836.281H1484.86Z" fill="#1357BC"/>
<path d="M1153.08 1383.31L1144.35 1388.77L1135.61 1383.31V1079.85L1144.35 1074.39L1153.08 1079.85V1383.31Z" fill="#1357BC"/>
<path d="M1096.31 1107.15H1078.85V1356.03H1096.31V1107.15Z" fill="#1357BC"/>
<path d="M1324.46 1482.64L1315.72 1497.92L1144.35 1398.57V1388.77L1153.08 1383.31L1324.46 1482.64Z" fill="#1357BC"/>
<path d="M1679.21 1383.31L1696.67 1394.22L1520.93 1495.73L1512.19 1480.44L1679.21 1383.31Z" fill="#1357BC"/>
<path d="M1483.81 1431.05L1492.54 1446.34L1636.92 1363.89L1628.19 1348.61L1483.81 1431.05Z" fill="#1357BC"/>
<path d="M1679.21 1079.85L1687.94 1074.39L1696.67 1079.85V1394.23L1679.21 1383.31V1079.85Z" fill="#1357BC"/>
<path d="M1514.38 983.787L1523.11 969.61L1687.94 1064.57V1074.4L1679.2 1079.85L1514.38 983.787Z" fill="#1357BC"/>
<path d="M1627.97 1114.54L1636.7 1099.27L1494.48 1017.93L1485.75 1033.2L1627.97 1114.54Z" fill="#1357BC"/>
<path d="M1153.08 1079.85L1144.35 1074.39V1064.56L1313.54 966.321L1322.28 981.607L1153.08 1079.85Z" fill="#1357BC"/>
<path d="M380.926 1152.23V993.458H400.153V1064.16H484.81V993.458H504.037V1152.23H484.81V1081.22H400.153V1152.23H380.926ZM668.429 993.458V1152.23H649.823L563.305 1027.57H561.754V1152.23H542.528V993.458H561.134L647.962 1118.43H649.513V993.458H668.429Z" fill="#1357BC"/>
<path d="M940.179 1465.01V1623.78H921.573L835.055 1499.12H833.504V1623.78H814.278V1465.01H832.884L919.712 1589.98H921.263V1465.01H940.179Z" fill="#1357BC"/>
<path d="M871.455 927.031V907.374L1144.34 1064.56V1074.39L1135.61 1079.85L871.455 927.031Z" fill="#1357BC"/>
<path d="M701.171 1025.27L692.44 1011.07L871.458 907.374V927.031L701.171 1025.27Z" fill="#1357BC"/>
<path d="M608.394 1383.31L599.664 1388.77L590.934 1383.31V1185.72H608.394V1383.31Z" fill="#1357BC"/>
<path d="M779.769 1482.64L771.039 1497.92L599.662 1398.57V1388.77L608.392 1383.31L779.769 1482.64Z" fill="#1357BC"/>
<path d="M660.592 1348.66L651.863 1363.94L799.659 1448.34L808.388 1433.05L660.592 1348.66Z" fill="#1357BC"/>
<path d="M1135.6 1383.31L1144.34 1388.77V1398.57L976.241 1495.73L967.511 1480.44L1135.6 1383.31Z" fill="#1357BC"/>
<path d="M939.513 602.359C939.513 619.105 936.49 633.576 930.443 645.773C924.396 657.971 916.101 667.377 905.557 673.993C895.014 680.608 882.971 683.916 869.43 683.916C855.889 683.916 843.847 680.608 833.304 673.993C822.76 667.377 814.465 657.971 808.418 645.773C802.371 633.576 799.347 619.105 799.347 602.359C799.347 585.614 802.371 571.142 808.418 558.945C814.465 546.748 822.76 537.341 833.304 530.726C843.847 524.11 855.889 520.803 869.43 520.803C882.971 520.803 895.014 524.11 905.557 530.726C916.101 537.341 924.396 546.748 930.443 558.945C936.49 571.142 939.513 585.614 939.513 602.359ZM920.907 602.359C920.907 588.611 918.607 577.009 914.007 567.55C909.459 558.092 903.283 550.934 895.479 546.076C887.726 541.218 879.043 538.789 869.43 538.789C859.817 538.789 851.109 541.218 843.304 546.076C835.552 550.934 829.376 558.092 824.776 567.55C820.228 577.009 817.954 588.611 817.954 602.359C817.954 616.107 820.228 627.71 824.776 637.168C829.376 646.626 835.552 653.784 843.304 658.643C851.109 663.501 859.817 665.93 869.43 665.93C879.043 665.93 887.726 663.501 895.479 658.643C903.283 653.784 909.459 646.626 914.007 637.168C918.607 627.71 920.907 616.107 920.907 602.359Z" fill="#1357BC"/>
<path d="M851.806 716.366H834.346V933.579H851.806V716.366Z" fill="#1357BC"/>
<path d="M908.568 716.366H891.107V933.579H908.568V716.366Z" fill="#1357BC"/>
<path d="M19.3464 1622.69V1463.92H38.5726V1534.62H123.23V1463.92H142.456V1622.69H123.23V1551.68H38.5726V1622.69H19.3464Z" fill="#1357BC"/>
<path d="M170.075 1666.18V1655.71L209.38 1612.68C213.993 1607.65 217.791 1603.27 220.776 1599.54C223.761 1595.78 225.97 1592.26 227.404 1588.96C228.877 1585.63 229.614 1582.14 229.614 1578.5C229.614 1574.31 228.606 1570.69 226.59 1567.62C224.614 1564.56 221.9 1562.2 218.45 1560.53C215 1558.86 211.124 1558.03 206.822 1558.03C202.248 1558.03 198.255 1558.98 194.844 1560.88C191.472 1562.74 188.855 1565.36 186.994 1568.73C185.173 1572.1 184.262 1576.05 184.262 1580.59H170.54C170.54 1573.61 172.148 1567.49 175.366 1562.22C178.583 1556.94 182.963 1552.83 188.506 1549.89C194.088 1546.94 200.348 1545.47 207.287 1545.47C214.264 1545.47 220.447 1546.94 225.835 1549.89C231.223 1552.83 235.448 1556.81 238.51 1561.81C241.572 1566.81 243.103 1572.37 243.103 1578.5C243.103 1582.88 242.309 1587.16 240.719 1591.35C239.169 1595.49 236.456 1600.13 232.579 1605.24C228.742 1610.32 223.412 1616.52 216.59 1623.85L189.844 1652.45V1653.39H245.197V1666.18H170.075Z" fill="#1357BC"/>
<path d="M393.92 1463.92V1622.69H375.314L288.796 1498.03H287.245V1622.69H268.019V1463.92H286.625L373.454 1588.89H375.004V1463.92H393.92Z" fill="#1357BC"/>
<path d="M429.374 1496.81L420.635 1481.55L590.924 1383.31L599.654 1388.77V1398.57L429.374 1496.81Z" fill="#1357BC"/>
<path d="M1959.73 907.374V928.118L1696.67 1079.85L1687.94 1074.39V1064.56L1959.73 907.374Z" fill="#1357BC"/>
<path d="M2299.17 993.458V1152.23H2280.56L2194.05 1027.57H2192.49V1152.23H2173.27V993.458H2191.87L2278.7 1118.43H2280.25V993.458H2299.17Z" fill="#1357BC"/>
<path d="M2173.27 1334.34V1175.57H2192.49V1246.28H2277.15V1175.57H2296.38V1334.34H2277.15V1263.33H2192.49V1334.34H2173.27Z" fill="#1357BC"/>
<path d="M2137.66 1011.07L2128.92 1025.27L1959.73 928.118V907.374L2137.66 1011.07Z" fill="#1357BC"/>
<path d="M2493.52 912.836L2502.26 918.294V928.122L2335.23 1024.19L2326.5 1009.99L2493.52 912.836Z" fill="#1357BC"/>
<path d="M2774.04 1064.57V1085.31L2502.26 928.122V918.294L2510.96 912.836L2774.04 1064.57Z" fill="#1357BC"/>
<path d="M2778.39 1002.35L2769.69 1017.64L2554.62 892.1L2563.36 877.912L2778.39 1002.35Z" fill="#1357BC"/>
<path d="M3038.19 912.836L3055.67 922.664L2774.04 1085.31V1064.57L3038.19 912.836Z" fill="#1357BC"/>
<path d="M3038.19 608.293L3046.93 603.934L3055.67 608.293V922.659L3038.19 912.831V608.293Z" fill="#1357BC"/>
<path d="M2998.92 635.593H2981.44V885.563H2998.92V635.593Z" fill="#1357BC"/>
<path d="M2774.04 456.576V435.832L3046.93 593.02V603.936L3038.19 608.296L2774.04 456.576Z" fill="#1357BC"/>
<path d="M2510.96 608.296L2493.52 598.478L2774.04 435.832V456.576L2510.96 608.296Z" fill="#1357BC"/>
<path d="M2563.36 643.225L2554.62 629.037L2769.69 503.508L2778.39 518.794L2563.36 643.225Z" fill="#1357BC"/>
<path d="M2510.96 912.838L2502.26 918.296L2493.52 912.838V598.483L2510.96 608.301V912.838Z" fill="#1357BC"/>
<path d="M3317.64 436.937V456.582L3055.67 608.302L3046.93 603.942V593.027L3317.64 436.937Z" fill="#1357BC"/>
<path d="M3658.16 522.973V681.745H3639.55L3553.04 557.085H3551.48V681.745H3532.26V522.973H3550.86L3637.69 647.944H3639.24V522.973H3658.16Z" fill="#1357BC"/>
<path d="M3532.26 863.87V705.098H3551.48V775.801H3636.14V705.098H3655.37V863.87H3636.14V792.857H3551.48V863.87H3532.26Z" fill="#1357BC"/>
<path d="M3497.75 539.536L3489.01 554.822L3317.64 456.582V436.937L3497.75 539.536Z" fill="#1357BC"/>
<path d="M3385.68 131.922C3385.68 148.667 3382.65 163.139 3376.61 175.336C3370.56 187.533 3362.26 196.94 3351.72 203.555C3341.18 210.171 3329.13 213.478 3315.59 213.478C3302.05 213.478 3290.01 210.171 3279.47 203.555C3268.92 196.94 3260.63 187.533 3254.58 175.336C3248.53 163.139 3245.51 148.667 3245.51 131.922C3245.51 115.176 3248.53 100.705 3254.58 88.5076C3260.63 76.3103 3268.92 66.9039 3279.47 60.2884C3290.01 53.6729 3302.05 50.3652 3315.59 50.3652C3329.13 50.3652 3341.18 53.6729 3351.72 60.2884C3362.26 66.9039 3370.56 76.3103 3376.61 88.5076C3382.65 100.705 3385.68 115.176 3385.68 131.922ZM3367.07 131.922C3367.07 118.174 3364.77 106.571 3360.17 97.1129C3355.62 87.6548 3349.45 80.4967 3341.64 75.6384C3333.89 70.7802 3325.21 68.3511 3315.59 68.3511C3305.98 68.3511 3297.27 70.7802 3289.47 75.6384C3281.71 80.4967 3275.54 87.6548 3270.94 97.1129C3266.39 106.571 3264.12 118.174 3264.12 131.922C3264.12 145.67 3266.39 157.273 3270.94 166.731C3275.54 176.189 3281.71 183.347 3289.47 188.205C3297.27 193.063 3305.98 195.492 3315.59 195.492C3325.21 195.492 3333.89 193.063 3341.64 188.205C3349.45 183.347 3355.62 176.189 3360.17 166.731C3364.77 157.273 3367.07 145.67 3367.07 131.922Z" fill="#1357BC"/>
<path d="M3299.1 245.905H3281.61V463.118H3299.1V245.905Z" fill="#1357BC"/>
<path d="M3354.73 245.905H3337.29V463.118H3354.73V245.905Z" fill="#1357BC"/>
<path d="M3861.25 436.937V456.582L3694.23 552.637L3685.49 538.449L3861.25 436.937Z" fill="#1357BC"/>
<path d="M4140.65 598.485L4123.21 608.302L3861.24 456.582V436.937L4140.65 598.485Z" fill="#1357BC"/>
<path d="M4140.67 912.838L4123.22 922.667V608.301L4140.67 598.483V912.838Z" fill="#1357BC"/>
<path d="M4469.95 1043.07H4450.72C4449.59 1037.54 4447.6 1032.69 4444.75 1028.5C4441.96 1024.31 4438.55 1020.8 4434.52 1017.96C4430.54 1015.06 4426.12 1012.89 4421.26 1011.44C4416.4 1010 4411.34 1009.27 4406.07 1009.27C4396.45 1009.27 4387.75 1011.7 4379.94 1016.56C4372.19 1021.42 4366.01 1028.58 4361.41 1038.03C4356.87 1047.49 4354.59 1059.1 4354.59 1072.84C4354.59 1086.59 4356.87 1098.19 4361.41 1107.65C4366.01 1117.11 4372.19 1124.27 4379.94 1129.13C4387.75 1133.99 4396.45 1136.41 4406.07 1136.41C4411.34 1136.41 4416.4 1135.69 4421.26 1134.24C4426.12 1132.8 4430.54 1130.65 4434.52 1127.81C4438.55 1124.91 4441.96 1121.37 4444.75 1117.19C4447.6 1112.95 4449.59 1108.09 4450.72 1102.61H4469.95C4468.5 1110.73 4465.87 1117.99 4462.04 1124.4C4458.22 1130.81 4453.46 1136.26 4447.78 1140.76C4442.09 1145.2 4435.71 1148.59 4428.63 1150.91C4421.6 1153.24 4414.08 1154.4 4406.07 1154.4C4392.53 1154.4 4380.48 1151.09 4369.94 1144.48C4359.4 1137.86 4351.1 1128.46 4345.06 1116.26C4339.01 1104.06 4335.99 1089.59 4335.99 1072.84C4335.99 1056.1 4339.01 1041.63 4345.06 1029.43C4351.1 1017.23 4359.4 1007.83 4369.94 1001.21C4380.48 994.595 4392.53 991.287 4406.07 991.287C4414.08 991.287 4421.6 992.45 4428.63 994.776C4435.71 997.101 4442.09 1000.51 4447.78 1005.01C4453.46 1009.45 4458.22 1014.88 4462.04 1021.29C4465.87 1027.65 4468.5 1034.91 4469.95 1043.07ZM4634.98 1072.84C4634.98 1089.59 4631.96 1104.06 4625.91 1116.26C4619.86 1128.46 4611.57 1137.86 4601.02 1144.48C4590.48 1151.09 4578.44 1154.4 4564.9 1154.4C4551.36 1154.4 4539.31 1151.09 4528.77 1144.48C4518.23 1137.86 4509.93 1128.46 4503.89 1116.26C4497.84 1104.06 4494.82 1089.59 4494.82 1072.84C4494.82 1056.1 4497.84 1041.63 4503.89 1029.43C4509.93 1017.23 4518.23 1007.83 4528.77 1001.21C4539.31 994.595 4551.36 991.287 4564.9 991.287C4578.44 991.287 4590.48 994.595 4601.02 1001.21C4611.57 1007.83 4619.86 1017.23 4625.91 1029.43C4631.96 1041.63 4634.98 1056.1 4634.98 1072.84ZM4616.37 1072.84C4616.37 1059.1 4614.07 1047.49 4609.47 1038.03C4604.93 1028.58 4598.75 1021.42 4590.95 1016.56C4583.19 1011.7 4574.51 1009.27 4564.9 1009.27C4555.28 1009.27 4546.58 1011.7 4538.77 1016.56C4531.02 1021.42 4524.84 1028.58 4520.24 1038.03C4515.7 1047.49 4513.42 1059.1 4513.42 1072.84C4513.42 1086.59 4515.7 1098.19 4520.24 1107.65C4524.84 1117.11 4531.02 1124.27 4538.77 1129.13C4546.58 1133.99 4555.28 1136.41 4564.9 1136.41C4574.51 1136.41 4583.19 1133.99 4590.95 1129.13C4598.75 1124.27 4604.93 1117.11 4609.47 1107.65C4614.07 1098.19 4616.37 1086.59 4616.37 1072.84Z" fill="#1357BC"/>
<path d="M4662.76 1195.72V1185.25L4702.07 1142.22C4706.68 1137.18 4710.48 1132.8 4713.46 1129.08C4716.45 1125.32 4718.66 1121.8 4720.09 1118.5C4721.57 1115.17 4722.3 1111.68 4722.3 1108.03C4722.3 1103.85 4721.29 1100.22 4719.28 1097.16C4717.3 1094.1 4714.59 1091.74 4711.14 1090.07C4707.69 1088.4 4703.81 1087.57 4699.51 1087.57C4694.94 1087.57 4690.94 1088.52 4687.53 1090.42C4684.16 1092.28 4681.54 1094.89 4679.68 1098.27C4677.86 1101.64 4676.95 1105.59 4676.95 1110.13H4663.23C4663.23 1103.15 4664.84 1097.03 4668.05 1091.75C4671.27 1086.48 4675.65 1082.37 4681.19 1079.43C4686.78 1076.48 4693.04 1075.01 4699.98 1075.01C4706.95 1075.01 4713.14 1076.48 4718.52 1079.43C4723.91 1082.37 4728.14 1086.35 4731.2 1091.35C4734.26 1096.35 4735.79 1101.91 4735.79 1108.03C4735.79 1112.41 4735 1116.7 4733.41 1120.88C4731.86 1125.03 4729.14 1129.66 4725.27 1134.78C4721.43 1139.86 4716.1 1146.06 4709.28 1153.39L4682.53 1181.99V1182.92H4737.89V1195.72H4662.76Z" fill="#1357BC"/>
<path d="M4760.73 1152.23V993.458H4779.96V1064.16H4864.62V993.458H4883.84V1152.23H4864.62V1081.22H4779.96V1152.23H4760.73Z" fill="#1357BC"/>
<path d="M4324.06 1018.73L4315.31 1034.02L4123.22 922.664L4140.67 912.836L4324.06 1018.73Z" fill="#1357BC"/>
<path d="M3927.44 102.152H3908.22C3907.08 96.6219 3905.09 91.7637 3902.25 87.5773C3899.46 83.391 3896.05 79.8765 3892.01 77.0339C3888.03 74.1396 3883.62 71.9689 3878.76 70.5218C3873.9 69.0746 3868.83 68.3511 3863.56 68.3511C3853.95 68.3511 3845.24 70.7802 3837.44 75.6384C3829.68 80.4967 3823.51 87.6548 3818.91 97.1129C3814.36 106.571 3812.09 118.174 3812.09 131.922C3812.09 145.67 3814.36 157.273 3818.91 166.731C3823.51 176.189 3829.68 183.347 3837.44 188.205C3845.24 193.063 3853.95 195.492 3863.56 195.492C3868.83 195.492 3873.9 194.769 3878.76 193.322C3883.62 191.875 3888.03 189.73 3892.01 186.887C3896.05 183.993 3899.46 180.453 3902.25 176.266C3905.09 172.028 3907.08 167.17 3908.22 161.691H3927.44C3926 169.806 3923.36 177.067 3919.54 183.476C3915.71 189.885 3910.96 195.337 3905.27 199.834C3899.59 204.279 3893.2 207.664 3886.12 209.99C3879.09 212.315 3871.57 213.478 3863.56 213.478C3850.02 213.478 3837.98 210.171 3827.44 203.555C3816.89 196.94 3808.6 187.533 3802.55 175.336C3796.5 163.139 3793.48 148.667 3793.48 131.922C3793.48 115.176 3796.5 100.705 3802.55 88.5076C3808.6 76.3103 3816.89 66.9039 3827.44 60.2884C3837.98 53.6729 3850.02 50.3652 3863.56 50.3652C3871.57 50.3652 3879.09 51.5281 3886.12 53.8538C3893.2 56.1796 3899.59 59.5907 3905.27 64.0872C3910.96 68.5319 3915.71 73.9587 3919.54 80.3675C3923.36 86.7245 3926 93.9861 3927.44 102.152ZM4092.47 131.922C4092.47 148.667 4089.45 163.139 4083.4 175.336C4077.36 187.533 4069.06 196.94 4058.52 203.555C4047.98 210.171 4035.93 213.478 4022.39 213.478C4008.85 213.478 3996.81 210.171 3986.27 203.555C3975.72 196.94 3967.43 187.533 3961.38 175.336C3955.33 163.139 3952.31 148.667 3952.31 131.922C3952.31 115.176 3955.33 100.705 3961.38 88.5076C3967.43 76.3103 3975.72 66.9039 3986.27 60.2884C3996.81 53.6729 4008.85 50.3652 4022.39 50.3652C4035.93 50.3652 4047.98 53.6729 4058.52 60.2884C4069.06 66.9039 4077.36 76.3103 4083.4 88.5076C4089.45 100.705 4092.47 115.176 4092.47 131.922ZM4073.87 131.922C4073.87 118.174 4071.57 106.571 4066.97 97.1129C4062.42 87.6548 4056.24 80.4967 4048.44 75.6384C4040.69 70.7802 4032.01 68.3511 4022.39 68.3511C4012.78 68.3511 4004.07 70.7802 3996.27 75.6384C3988.51 80.4967 3982.34 87.6548 3977.74 97.1129C3973.19 106.571 3970.92 118.174 3970.92 131.922C3970.92 145.67 3973.19 157.273 3977.74 166.731C3982.34 176.189 3988.51 183.347 3996.27 188.205C4004.07 193.063 4012.78 195.492 4022.39 195.492C4032.01 195.492 4040.69 193.063 4048.44 188.205C4056.24 183.347 4062.42 176.189 4066.97 166.731C4071.57 157.273 4073.87 145.67 4073.87 131.922Z" fill="#1357BC"/>
<path d="M4120.27 254.806V244.34L4159.57 201.313C4164.19 196.274 4167.99 191.894 4170.97 188.173C4173.96 184.413 4176.16 180.885 4177.6 177.591C4179.07 174.257 4179.81 170.768 4179.81 167.125C4179.81 162.938 4178.8 159.314 4176.78 156.252C4174.81 153.189 4172.09 150.825 4168.64 149.158C4165.19 147.491 4161.32 146.658 4157.02 146.658C4152.44 146.658 4148.45 147.608 4145.04 149.507C4141.67 151.368 4139.05 153.984 4137.19 157.356C4135.37 160.729 4134.46 164.683 4134.46 169.218H4120.73C4120.73 162.241 4122.34 156.116 4125.56 150.844C4128.78 145.573 4133.16 141.464 4138.7 138.518C4144.28 135.572 4150.54 134.099 4157.48 134.099C4164.46 134.099 4170.64 135.572 4176.03 138.518C4181.42 141.464 4185.64 145.437 4188.7 150.437C4191.77 155.438 4193.3 161 4193.3 167.125C4193.3 171.505 4192.5 175.788 4190.91 179.974C4189.36 184.122 4186.65 188.754 4182.77 193.871C4178.94 198.949 4173.61 205.151 4166.78 212.477L4140.04 241.084V242.014H4195.39V254.806H4120.27Z" fill="#1357BC"/>
<path d="M4218.23 211.308V52.5359H4237.45V123.239H4322.11V52.5359H4341.34V211.308H4322.11V140.294H4237.45V211.308H4218.23Z" fill="#1357BC"/>
<path d="M3828.5 245.905H3893.99L3890.71 263.366H3830.68L3828.5 245.905Z" fill="#1357BC"/>
<path d="M3835.02 292.847H3886.31L3884.14 310.307H3838.3L3835.02 292.847Z" fill="#1357BC"/>
<path d="M3842.66 338.695H3879.79L3876.51 356.156H3844.87L3842.66 338.695Z" fill="#1357BC"/>
<path d="M3849.22 385.625H3872.16L3869.94 403.086H3852.5L3849.22 385.625Z" fill="#1357BC"/>
</svg>
